<svg xmlns="http://www.w3.org/2000/svg" xmlns:xlink="http://www.w3.org/1999/xlink" width="500" zoomAndPan="magnify" viewBox="0 0 375 374.999991" height="500" preserveAspectRatio="xMidYMid meet" version="1.0"><defs><clipPath id="id1"><path d="M 162.351562 84 L 375 84 L 375 259.554688 L 162.351562 259.554688 Z M 162.351562 84 " clip-rule="nonzero"/></clipPath><clipPath id="id2"><path d="M 1.171875 72.839844 L 162.421875 72.839844 L 162.421875 279.089844 L 1.171875 279.089844 Z M 1.171875 72.839844 " clip-rule="nonzero"/></clipPath></defs><g clip-path="url(#id1)"><path fill="#f4f4f4" d="M 290.433594 188.148438 L 290.433594 142.738281 L 327.589844 142.738281 L 375.351562 84.425781 C 355.621094 84.425781 335.894531 84.425781 316.167969 84.425781 C 290.828125 84.425781 293.027344 81.808594 274.382812 100.402344 L 231.9375 142.738281 L 162.351562 142.738281 L 162.351562 84.425781 L 231.9375 84.425781 L 231.9375 259.554688 Z M 290.433594 188.148438 " fill-opacity="1" fill-rule="evenodd"/></g><g clip-path="url(#id2)"><path fill="#f4f4f4" d="M 162.390625 161.566406 L 162.390625 141.503906 L 106.546875 141.503906 L 106.546875 193.710938 L 21.242188 279.089844 L 100.210938 279.089844 L 106.546875 272.746094 L 162.390625 216.855469 Z M 1.199219 190.453125 L 1.199219 210.425781 L 57.042969 210.425781 L 57.042969 158.222656 L 142.347656 72.839844 L 63.382812 72.839844 L 57.042969 79.183594 L 1.199219 135.078125 Z M 1.199219 190.453125 " fill-opacity="1" fill-rule="evenodd"/></g></svg>