<svg xmlns="http://www.w3.org/2000/svg" xmlns:xlink="http://www.w3.org/1999/xlink" width="500" zoomAndPan="magnify" viewBox="0 0 375 374.999991" height="500" preserveAspectRatio="xMidYMid meet" version="1.0"><defs><clipPath id="0b5b0ce62f"><path d="M 22.195312 101.011719 L 157.195312 101.011719 L 157.195312 274.261719 L 22.195312 274.261719 Z M 22.195312 101.011719 " clip-rule="nonzero"/></clipPath><clipPath id="aee5014b10"><path d="M 157.546875 103 L 364.546875 103 L 364.546875 274.261719 L 157.546875 274.261719 Z M 157.546875 103 " clip-rule="nonzero"/></clipPath></defs><g clip-path="url(#0b5b0ce62f)"><path fill="#00d4bb" d="M 157.171875 175.542969 L 157.171875 158.691406 L 110.417969 158.691406 L 110.417969 202.542969 L 38.996094 274.261719 L 105.113281 274.261719 L 110.417969 268.933594 L 157.171875 221.984375 Z M 22.214844 199.808594 L 22.214844 216.585938 L 68.96875 216.585938 L 68.96875 172.734375 L 140.394531 101.011719 L 74.277344 101.011719 L 68.96875 106.34375 L 22.214844 153.289062 Z M 22.214844 199.808594 " fill-opacity="1" fill-rule="evenodd"/></g><g clip-path="url(#aee5014b10)"><path fill="#00d4bb" d="M 282.019531 204.664062 L 282.019531 160.402344 L 318.128906 160.402344 L 364.546875 103.570312 C 345.375 103.570312 326.203125 103.570312 307.027344 103.570312 C 282.402344 103.570312 284.539062 101.019531 266.421875 119.144531 L 225.171875 160.402344 L 157.546875 160.402344 L 157.546875 103.570312 L 225.171875 103.570312 L 225.171875 274.257812 Z M 282.019531 204.664062 " fill-opacity="1" fill-rule="evenodd"/></g></svg>